HIERARCHY
ROOT Hips
{
	OFFSET	0.00	0.00	0.00
	CHANNELS 6 Xposition Yposition Zposition Zrotation Xrotation Yrotation
	JOINT LeftUpLeg
	{
		OFFSET	 0.126116	-0.014019	-0.065224
		CHANNELS 3 Zrotation Xrotation Yrotation
		JOINT LeftLeg
		{
			OFFSET	 0.000000	 0.000000	 0.569914
			CHANNELS 3 Zrotation Xrotation Yrotation
			JOINT LeftFoot
			{
				OFFSET	 0.000000	 0.000000	 0.544423
				CHANNELS 3 Zrotation Xrotation Yrotation
				JOINT LeftToeBase
				{
					OFFSET	 0.000000	 0.000000	 0.207117
					CHANNELS 3 Zrotation Xrotation Yrotation
					End Site
					{
						OFFSET	 0.000000	 0.000000	 0.207117
					}
				}
			}
		}
	}
	JOINT RightUpLeg
	{
		OFFSET	-0.124023	-0.008373	-0.065224
		CHANNELS 3 Zrotation Xrotation Yrotation
		JOINT RightLeg
		{
			OFFSET	 0.000000	 0.000000	 0.570047
			CHANNELS 3 Zrotation Xrotation Yrotation
			JOINT RightFoot
			{
				OFFSET	 0.000000	 0.000000	 0.544354
				CHANNELS 3 Zrotation Xrotation Yrotation
				JOINT RightToeBase
				{
					OFFSET	 0.000000	 0.000000	 0.207540
					CHANNELS 3 Zrotation Xrotation Yrotation
					End Site
					{
						OFFSET	 0.000000	 0.000000	 0.207540
					}
				}
			}
		}
	}
	JOINT Spine
	{
		OFFSET	 0.000184	-0.007763	 0.117403
		CHANNELS 3 Zrotation Xrotation Yrotation
		JOINT Spine1
		{
			OFFSET	 0.000000	 0.000000	 0.137269
			CHANNELS 3 Zrotation Xrotation Yrotation
			JOINT Spine2
			{
				OFFSET	 0.000000	 0.000000	 0.156879
				CHANNELS 3 Zrotation Xrotation Yrotation
				JOINT LeftShoulder
				{
					OFFSET	 0.080501	-0.002496	 0.160144
					CHANNELS 3 Zrotation Xrotation Yrotation
					JOINT LeftArm
					{
						OFFSET	 0.000000	 0.000000	 0.164363
						CHANNELS 3 Zrotation Xrotation Yrotation
						JOINT LeftForeArm
						{
							OFFSET	 0.000000	 0.000000	 0.364576
							CHANNELS 3 Zrotation Xrotation Yrotation
							JOINT LeftHand
							{
								OFFSET	 0.000000	 0.000000	 0.360812
								CHANNELS 3 Zrotation Xrotation Yrotation
								JOINT LeftHandIndex1
								{
									OFFSET	 0.000000	 0.000000	 0.086006
									CHANNELS 3 Zrotation Xrotation Yrotation
									JOINT LeftHandIndex2
									{
										OFFSET	 0.000000	 0.000000	 0.047236
										CHANNELS 3 Zrotation Xrotation Yrotation
										JOINT LeftHandIndex3
										{
											OFFSET	-0.004284	-0.000551	 0.038166
											CHANNELS 3 Zrotation Xrotation Yrotation
											End Site
											{
												OFFSET	-0.004284	-0.000551	 0.038166
											}
										}
									}
								}
							}
						}
					}
				}
				JOINT Neck
				{
					OFFSET	 0.000000	 0.000000	 0.176489
					CHANNELS 3 Zrotation Xrotation Yrotation
					JOINT Head
					{
						OFFSET	 0.000000	-0.001747	 0.077940
						CHANNELS 3 Zrotation Xrotation Yrotation
						End Site
						{
							OFFSET	 0.000000	-0.001747	 0.077940
						}
					}
				}
				JOINT RightShoulder
				{
					OFFSET	-0.080363	 0.000306	 0.159706
					CHANNELS 3 Zrotation Xrotation Yrotation
					JOINT RightArm
					{
						OFFSET	 0.000000	 0.000000	 0.164196
						CHANNELS 3 Zrotation Xrotation Yrotation
						JOINT RightForeArm
						{
							OFFSET	 0.000000	 0.000000	 0.365611
							CHANNELS 3 Zrotation Xrotation Yrotation
							JOINT RightHand
							{
								OFFSET	 0.000000	 0.000000	 0.360648
								CHANNELS 3 Zrotation Xrotation Yrotation
								JOINT RightHandIndex1
								{
									OFFSET	 0.000000	 0.000000	 0.069977
									CHANNELS 3 Zrotation Xrotation Yrotation
									JOINT RightHandIndex2
									{
										OFFSET	 0.000000	 0.000000	 0.052305
										CHANNELS 3 Zrotation Xrotation Yrotation
										JOINT RightHandIndex3
										{
											OFFSET	 0.009002	-0.000782	 0.042196
											CHANNELS 3 Zrotation Xrotation Yrotation
											End Site
											{
												OFFSET	 0.009002	-0.000782	 0.042196
											}
										}
									}
								}
							}
						}
					}
				}
			}
		}
	}
}
MOTION
Frames:    4
Frame Time: 0.03333334
 0.002288	 0.022890	 1.215238	 0.001869	 0.736486	 0.483341	 4.121768	-1.740600	 179.840900	 3.149054	-11.594560	 1.749952	 4.341489	 71.407150	 1.245834	-2.385833	 28.452760	 0.000004	-4.123327	-2.151783	-179.865500	-3.142116	-11.963990	-1.790687	-4.347235	 71.430570	-1.263901	 2.384659	 28.388700	-0.000001	-0.005923	 3.783161	 0.089848	 0.000000	 0.000000	 0.000000	 0.000000	 0.000000	 0.000000	-91.229260	 83.958310	 178.242600	 12.080020	 0.580816	-1.590062	-5.132527	-0.912958	-0.284914	-16.733440	 0.534903	-4.292006	-2.434338	 5.182776	 7.472631	-5.213937	-0.202400	 3.566957	-1.378229	 35.397820	-2.634230	 0.411357	-3.779086	-0.073053	-0.595966	 0.008129	-0.142397	 87.726900	 87.419040	-176.798800	-12.547750	 3.325960	 3.698915	 5.871922	-0.462907	 0.434563	 16.607290	-0.531807	 8.500693	 3.236365	 2.840245	-9.892056	 5.070519	-0.690904	-9.399550	-2.350882	 35.473990	 5.254307
 0.013607	 0.039370	 1.215785	 179.285500	 0.294073	-0.301029	 6.296401	-9.807364	 177.697300	-1.243972	-39.695960	-6.615664	-144.983700	 83.576550	 131.891800	-2.227621	 45.188190	-0.424634	-15.186030	-10.887390	-173.383000	 6.515510	-39.884380	 9.486563	 160.857100	 84.630640	-152.394000	 2.347237	 34.618420	 0.141364	-18.823990	 6.529164	 0.399736	 3.531322	 8.895686	 1.280837	-7.475583	-21.780870	-1.911546	-91.229450	 83.958340	 178.242800	 28.115070	 59.018820	-45.593980	-1.484974	 0.983345	-5.809909	 23.820330	 1.524084	-7.882408	-11.237310	 8.954126	-23.847540	-5.213937	-0.202400	 3.566957	-1.378229	 35.397820	-2.634230	-1.216274	 7.243958	 5.043291	-5.368004	-19.056780	-7.316251	 87.726850	 87.418960	-176.798800	-59.937740	 58.575180	 61.326930	 1.528702	 0.950550	 5.835996	-38.996950	 3.195686	 18.046690	-1.195402	 24.960450	-62.572730	 5.070519	-0.690904	-9.399550	-2.350882	 35.473990	 5.254307
 0.014022	 0.038275	 1.217131	 179.665000	 0.575101	-0.113409	 6.394375	-10.351060	 177.609100	-1.351679	-39.718500	-6.734594	-145.439100	 83.741230	 132.452800	-2.227212	 45.213840	-0.425424	-15.579150	-11.172520	-173.795500	 6.591197	-39.816170	 9.523652	 163.957300	 84.802460	-155.460000	 2.352101	 33.973130	 0.126018	-23.370800	 6.241034	 0.153051	 3.473591	 8.416378	 1.522035	-7.411892	-21.403680	-2.129565	-91.229300	 83.958370	 178.242600	 31.168220	 61.380870	-48.020870	-3.717994	 1.522849	-6.927490	 23.445520	 1.554611	-7.820148	-11.413570	 8.743679	-24.295960	-5.213937	-0.202400	 3.566957	-1.378229	 35.397820	-2.634230	-1.291167	 7.163014	 5.213102	-5.394152	-19.058230	-7.575639	 87.727010	 87.418890	-176.799000	-59.066560	 58.203610	 58.942970	 3.668341	 1.491566	 6.949180	-39.141570	 3.232651	 18.024010	-0.917760	 25.276180	-62.115840	 5.070519	-0.690904	-9.399550	-2.350882	 35.473990	 5.254307
 0.014142	 0.037721	 1.217457	 179.755600	 0.630536	-0.060061	 6.390872	-10.564160	 177.681700	-1.467790	-39.697120	-6.761603	-145.882900	 83.946570	 132.904800	-2.225893	 45.295570	-0.427956	-15.727420	-11.322830	-174.076300	 6.601931	-39.815740	 9.530715	 166.338300	 84.961260	-157.777600	 2.352986	 33.852690	 0.123169	-24.353270	 6.174730	 0.083653	 3.470992	 8.162237	 1.616708	-7.403349	-21.249690	-2.201459	-91.229320	 83.958310	 178.242600	 32.942620	 62.486550	-49.597790	-4.243010	 1.660589	-7.184675	 23.357980	 1.569811	-7.812438	-11.495480	 8.593313	-24.461230	-5.213937	-0.202400	 3.566957	-1.378229	 35.397820	-2.634230	-1.313484	 7.141956	 5.254000	-5.402606	-19.070450	-7.642025	 87.726860	 87.418890	-176.798800	-59.918670	 58.427730	 59.449970	 4.101300	 1.628804	 7.204951	-39.225770	 3.219882	 18.018690	-0.903734	 25.263000	-61.957390	 5.070519	-0.690904	-9.399550	-2.350882	 35.473990	 5.254307
